#N canvas 192 102 692 408 12;
#X floatatom 166 55 5 0 0 0 - - - 0;
#X obj 212 202 *~;
#X floatatom 247 151 5 0 0 0 - - - 0;
#X obj 247 107 dbtorms;
#X floatatom 594 36 5 10 100 0 - - - 0;
#X obj 164 112 osc~, f 10;
#X floatatom 535 151 5 0 0 0 - - - 0;
#X floatatom 301 12 5 0 0 0 - - - 0;
#X obj 502 241 *;
#X obj 403 151 metro 500 1 msec;
#X obj 442 189 tgl 15 0 empty empty empty 17 7 0 10 #fcfcfc #000000
#000000 0 1;
#X obj 395 274 osc~;
#X floatatom 466 210 5 0 0 0 - - - 0;
#X obj 286 223 tgl 15 0 empty empty empty 17 7 0 10 #fcfcfc #000000
#000000 0 1;
#X floatatom 258 251 5 0 0 0 - - - 0;
#X obj 221 287 *~;
#X obj 408 354 dac~;
#X obj 237 346 dac~;
#X obj 289 186 metro 750 1 msec;
#X obj 417 317 *~;
#X floatatom 562 284 5 0 0 0 - - - 0;
#X obj 562 248 dbtorms;
#X obj 33 168 noise~;
#X obj 64 342 dac~;
#X floatatom 98 102 5 0 0 0 - - - 0;
#X obj 88 61 dbtorms;
#X obj 54 239 *~;
#X floatatom 88 24 5 0 0 0 - - - 0;
#X obj 116 208 tgl 15 0 empty empty empty 17 7 0 10 #fcfcfc #000000
#000000 0 1;
#X floatatom 88 236 5 0 0 0 - - - 0;
#X obj 73 290 *~;
#X floatatom 288 294 5 0 0 0 - - - 0;
#X obj 243 318 *~;
#X obj 323 267 tgl 15 0 empty empty empty 17 7 0 10 #fcfcfc #000000
#000000 0 1;
#X obj 320 230 metro 250 1 msec;
#X text 166 25 587 Gz -> D2;
#X text 537 120 392 Gz -> G1;
#X obj 116 154 metro 1500 1 msec;
#X obj 127 182 delay 250;
#X connect 0 0 5 0;
#X connect 1 0 15 0;
#X connect 2 0 1 1;
#X connect 3 0 2 0;
#X connect 4 0 3 0;
#X connect 4 0 21 0;
#X connect 5 0 1 0;
#X connect 6 0 8 1;
#X connect 7 0 9 0;
#X connect 7 0 18 0;
#X connect 7 0 34 0;
#X connect 7 0 37 0;
#X connect 8 0 11 0;
#X connect 9 0 10 0;
#X connect 10 0 12 0;
#X connect 11 0 19 0;
#X connect 12 0 8 0;
#X connect 13 0 14 0;
#X connect 14 0 15 1;
#X connect 15 0 32 0;
#X connect 18 0 13 0;
#X connect 19 0 16 0;
#X connect 19 0 16 1;
#X connect 20 0 19 1;
#X connect 21 0 20 0;
#X connect 22 0 26 0;
#X connect 24 0 26 1;
#X connect 25 0 24 0;
#X connect 26 0 30 0;
#X connect 27 0 25 0;
#X connect 28 0 29 0;
#X connect 29 0 30 1;
#X connect 30 0 23 0;
#X connect 30 0 23 1;
#X connect 31 0 32 1;
#X connect 32 0 17 0;
#X connect 32 0 17 1;
#X connect 33 0 31 0;
#X connect 34 0 33 0;
#X connect 37 0 28 0;
#X connect 37 0 38 0;
#X connect 38 0 28 0;
